/* XPM */
static const char * ts_find_xpm[] = {
"64 64 3 1",
" 	c None",
".	c #000000",
"+	c #FF0000",
"                          ...........                           ",
"                     .....+++++++++++......                     ",
"                  ...+++++++++++++++++++++...                   ",
"      .          ..++++++++++++++++++++++++++...         .      ",
"     .+.      ...+++++++++...........++++++++++..       .+.     ",
"    .+++.     .++++++++...     +     ...+++++++++.     .+++.    ",
"   .+++++. ...++++++...        +        ...+++++++..  .+++++.   ",
"    .+++++..++++++..           +           ..+++++++..+++++.    ",
"     .+++++++++++.             +             .++++++++++++.     ",
"      .++++++++..              +              ..+++++++++.      ",
"       .++++++.                +                .+++++++.       ",
"       .++++++.                +                 .+++++..       ",
"      .++++++++.               +                .++++++++.      ",
"      .+++++++++.              +               .+++++++++.      ",
"     .++++..+++++.             +              .+++++.+++++.     ",
"    .++++.  .+++++.            +             .+++++. .++++.     ",
"    .++++.   .+++.             +              .+++.  .+++++.    ",
"   .++++.     .+.              +               .+.    .+++++.   ",
"   .+++.       .               +                .      .++++.   ",
"  .++++                        +                       .+++++.  ",
"  .+++.                        +                        .++++.  ",
"  .+++.                        +                        .+++++  ",
" .++++.                        +                        .+++++. ",
" .+++.                         +                         .++++. ",
" .+++.                         +                         .++++. ",
" .+++.                         +                         .++++. ",
" .+++.                         +                         .++++. ",
".+++.                          +                          .++++.",
".+++.                          +                          .++++.",
".+++.                          +                          .++++.",
".+++.                          +                          .++++.",
".+++.                          +                          .++++.",
".+++.+++++++++++++++++++++++++++++++++++++++++++++++++++++.++++.",
".+++.                          +                          .++++.",
".+++.                          +                          .++++.",
".+++.                          +                          .++++.",
".+++.                          +                          .++++.",
" .+++.                         +                         .+++++.",
" .+++.                         +                         .++++. ",
" .+++.                         +                         .++++. ",
" .+++.                         +                         .++++. ",
" ..+++.                        +                        .+++++. ",
"  .+++.                        +                        .+++++. ",
"  .+++.                        +                        .++++.  ",
"  .++++.                       +                       .+++++.  ",
"   .+++.       .               +                .      .++++.   ",
"   .++++.     .+.              +               .+.    .+++++.   ",
"   ..++++.   .+++.             +              .+++.  .+++++.    ",
"    .++++.  .+++++.            +             .+++++. .+++++.    ",
"     .++++..+++++.             +              .+++++.+++++.     ",
"      .+++++++++.              +               .+++++++++.      ",
"      .++++++++.               +                .++++++++.      ",
"      ..++++++.                +                 .++++++.       ",
"       .++++++.                +                .+++++++.       ",
"      .++++++++..              +              ..+++++++++.      ",
"     .+++++++++++.             +             .++++++++++++.     ",
"    .+++++..++++++..           +           ..+++++++..+++++.    ",
"   .+++++.  ..++++++...        +        ...+++++++..  .+++++.   ",
"    .+++.    ..++++++++...     +     ...+++++++++.     .+++.    ",
"     .+.       ..+++++++++...........++++++++++..       .+.     ",
"      .          ..++++++++++++++++++++++++++..          .      ",
"                   ..+++++++++++++++++++++....                  ",
"                     .....+++++++++++.....                      ",
"                          ...........                           "};
