/* XPM */
static char * ts_new_station_xpm[] = {
"11 11 6 1",
" 	c None",
".	c #69699F",
"+	c #D9D9FF",
"@	c #3F3F82",
"#	c #9C9CCD",
"$	c #0D0D3D",
"     .     ",
"    +.@    ",
"   ++#@@   ",
"  ++###@@  ",
" ++#####@@ ",
"..#######$$",
" @@#####$$ ",
"  @@###$$  ",
"   @@#$$   ",
"    @$$    ",
"     $     "};
